<svg width="289" height="154" viewBox="0 0 289 154" fill="none" xmlns="http://www.w3.org/2000/svg">
<path d="M23.552 116.28C16.7253 116.28 11.5627 114.36 8.064 110.52C4.56533 106.595 2.816 101.005 2.816 93.752V88.632H16.128V94.776C16.128 100.579 18.56 103.48 23.424 103.48C25.8133 103.48 27.6053 102.797 28.8 101.432C30.08 99.9813 30.72 97.6773 30.72 94.52C30.72 90.7653 29.8667 87.48 28.16 84.664C26.4533 81.7627 23.296 78.3067 18.688 74.296C12.8853 69.176 8.832 64.568 6.528 60.472C4.224 56.2907 3.072 51.5973 3.072 46.392C3.072 39.3093 4.864 33.848 8.448 30.008C12.032 26.0827 17.2373 24.12 24.064 24.12C30.8053 24.12 35.8827 26.0827 39.296 30.008C42.7947 33.848 44.544 39.3947 44.544 46.648V50.36H31.232V45.752C31.232 42.68 30.6347 40.4613 29.44 39.096C28.2453 37.6453 26.496 36.92 24.192 36.92C19.4987 36.92 17.152 39.7787 17.152 45.496C17.152 48.7387 18.0053 51.768 19.712 54.584C21.504 57.4 24.704 60.8133 29.312 64.824C35.2 69.944 39.2533 74.5947 41.472 78.776C43.6907 82.9573 44.8 87.864 44.8 93.496C44.8 100.835 42.9653 106.467 39.296 110.392C35.712 114.317 30.464 116.28 23.552 116.28ZM52.873 25.4H66.953V61.88H82.057V25.4H96.137V115H82.057V74.68H66.953V115H52.873V25.4ZM126.975 116.28C120.063 116.28 114.772 114.317 111.103 110.392C107.434 106.467 105.599 100.92 105.599 93.752V46.648C105.599 39.48 107.434 33.9333 111.103 30.008C114.772 26.0827 120.063 24.12 126.975 24.12C133.887 24.12 139.178 26.0827 142.847 30.008C146.516 33.9333 148.351 39.48 148.351 46.648V93.752C148.351 100.92 146.516 106.467 142.847 110.392C139.178 114.317 133.887 116.28 126.975 116.28ZM126.975 103.48C131.839 103.48 134.271 100.536 134.271 94.648V45.752C134.271 39.864 131.839 36.92 126.975 36.92C122.111 36.92 119.679 39.864 119.679 45.752V94.648C119.679 100.536 122.111 103.48 126.975 103.48ZM177.713 116.28C170.972 116.28 165.809 114.36 162.225 110.52C158.726 106.68 156.977 101.261 156.977 94.264V46.136C156.977 39.1387 158.726 33.72 162.225 29.88C165.809 26.04 170.972 24.12 177.713 24.12C184.454 24.12 189.574 26.04 193.073 29.88C196.657 33.72 198.449 39.1387 198.449 46.136V55.608H185.137V45.24C185.137 39.6933 182.79 36.92 178.097 36.92C173.404 36.92 171.057 39.6933 171.057 45.24V95.288C171.057 100.749 173.404 103.48 178.097 103.48C182.79 103.48 185.137 100.749 185.137 95.288V81.592H198.449V94.264C198.449 101.261 196.657 106.68 193.073 110.52C189.574 114.36 184.454 116.28 177.713 116.28ZM206.873 25.4H220.953V63.16L238.873 25.4H252.953L236.185 58.296L253.209 115H238.489L226.585 75.064L220.953 86.456V115H206.873V25.4Z" fill="#EAFB00"/>
<g clip-path="url(#clip0_9_108)">
<path d="M132.258 68.6551C132.482 68.1467 132.315 67.5529 131.856 67.2264C131.397 66.8998 130.771 66.9295 130.342 67.2932L120.628 75.6057C120.248 75.9322 120.112 76.4555 120.29 76.9156C120.468 77.3758 120.924 77.6875 121.429 77.6875H125.66L122.741 84.3449C122.518 84.8533 122.685 85.4471 123.144 85.7736C123.603 86.1002 124.229 86.0705 124.658 85.7068L134.372 77.3943C134.751 77.0678 134.888 76.5445 134.71 76.0844C134.531 75.6242 134.08 75.3162 133.571 75.3162H129.34L132.258 68.6551Z" fill="#EAFB00"/>
</g>
<path d="M266 26H279V102H266V26Z" fill="#EAFB00"/>
<path d="M266.597 106.092C267.689 105.909 268.791 106.003 269.812 106.34L272.147 109.973L268.612 113.507C268.542 113.578 268.5 113.676 268.505 113.779C268.509 113.882 268.552 113.976 268.627 114.047L273.877 118.922C274.013 119.048 274.223 119.057 274.369 118.936C274.514 118.814 274.547 118.607 274.448 118.448L271.617 113.85L275.869 110.306C275.991 110.207 276.033 110.039 275.981 109.893L274.912 106.922C276.248 106.139 277.837 105.834 279.398 106.097C282.633 106.631 285 109.425 285 112.701V112.973C285 114.918 284.194 116.779 282.769 118.106L274.298 126.014C273.947 126.342 273.483 126.525 273 126.525C272.517 126.525 272.053 126.342 271.702 126.014L263.231 118.106C261.806 116.779 261 114.918 261 112.973V112.701C261 109.425 263.367 106.631 266.597 106.092Z" fill="#EAFB00"/>
<defs>
<clipPath id="clip0_9_108">
<rect width="17" height="19" fill="white" transform="translate(119 67)"/>
</clipPath>
</defs>
</svg>
